<svg xmlns="http://www.w3.org/2000/svg" width="161.962" height="45.053" viewBox="0 0 161.962 45.053">
  <path id="Sollic" d="M336.965,2483.738q-3.945-4.285-3.944-11.87v-.406a19.053,19.053,0,0,1,1.754-8.382,12.761,12.761,0,0,1,5.061-5.587,15.105,15.105,0,0,1,7.83-1.955q6.118,0,9.715,3.387l-6.757,5.443a4.108,4.108,0,0,0-3.19-1.3q-3.8,0-4.437,4.836a33.92,33.92,0,0,0-.2,4.226q0,4.72,1.131,6.544a3.917,3.917,0,0,0,3.6,1.823,4.35,4.35,0,0,0,3.19-1.114,4.086,4.086,0,0,0,1.1-3.113h9.164a10.822,10.822,0,0,1-3.7,8.455,13.766,13.766,0,0,1-9.526,3.3Q340.907,2488.023,336.965,2483.738Zm-93.744.275q-4.061-4.011-4.379-10.872l-.029-1.651a18.465,18.465,0,0,1,1.827-8.352,13.054,13.054,0,0,1,5.249-5.631,15.835,15.835,0,0,1,8.033-1.969q7.046,0,11.106,4.358t4.061,11.856v.347q0,7.325-4.075,11.625t-11.034,4.3Q247.28,2488.023,243.221,2484.014Zm5.394-13.68-.029,1.766q0,4.343,1.363,6.369a4.541,4.541,0,0,0,4.031,2.027q5.22,0,5.336-8.02v-.985q0-8.424-5.394-8.425Q249.02,2463.066,248.614,2470.333Zm-41.234,15.852a14.012,14.012,0,0,1-6.264-5.038,13.106,13.106,0,0,1-2.1-7.368h10.208q0,3.387,1.754,4.994t5.7,1.607a6.559,6.559,0,0,0,3.987-1.086,3.581,3.581,0,0,0,1.465-3.055,4.172,4.172,0,0,0-1.581-3.474,19.649,19.649,0,0,0-5.553-2.577,53.334,53.334,0,0,1-6.5-2.577q-8.207-4.025-8.206-11.06a9.911,9.911,0,0,1,2.044-6.181,13.225,13.225,0,0,1,5.786-4.169,22.531,22.531,0,0,1,8.41-1.491,19.733,19.733,0,0,1,8.163,1.621l-8.4,6.052a6.956,6.956,0,0,0-4.307,1.2,3.535,3.535,0,0,0,.159,5.993,21.949,21.949,0,0,0,6.119,2.722,37.589,37.589,0,0,1,7.192,3.025q6.843,3.938,6.844,10.857a10.284,10.284,0,0,1-4.176,8.686q-4.176,3.156-11.454,3.155A22.754,22.754,0,0,1,207.38,2486.185Zm108.085,1.259v-31.326h9.8v31.326Zm-19.294,0v-44.47h9.8v44.47Zm-19.3,0v-44.47h9.8v44.47Zm39.523-35.991a4.671,4.671,0,0,1,0-6.875,6.389,6.389,0,0,1,7.83,0,4.673,4.673,0,0,1,0,6.875,6.392,6.392,0,0,1-7.83,0Z" transform="translate(-199.013 -2442.97)" fill="#fff"/>
</svg>
