<svg xmlns="http://www.w3.org/2000/svg" width="95.447" height="26.594" viewBox="0 0 95.447 26.594"><path id="Sollic" fill="#1c1c1d" d="M184.554,74.484a9.962,9.962,0,0,1-2.324-7.007v-.239a11.249,11.249,0,0,1,1.034-4.947,7.525,7.525,0,0,1,2.982-3.3,8.9,8.9,0,0,1,4.614-1.154,8,8,0,0,1,5.725,2L192.6,63.051a2.418,2.418,0,0,0-1.88-.769q-2.238,0-2.615,2.855a20.064,20.064,0,0,0-.12,2.495,7.9,7.9,0,0,0,.667,3.862,2.306,2.306,0,0,0,2.119,1.077,2.564,2.564,0,0,0,1.88-.658,2.412,2.412,0,0,0,.649-1.838h5.4a6.393,6.393,0,0,1-2.179,4.99,8.107,8.107,0,0,1-5.614,1.949A8.206,8.206,0,0,1,184.554,74.484Zm-55.245.163a9.257,9.257,0,0,1-2.58-6.417l-.017-.975a10.92,10.92,0,0,1,1.076-4.93A7.7,7.7,0,0,1,130.882,59a9.315,9.315,0,0,1,4.734-1.163,8.5,8.5,0,0,1,6.546,2.572,9.873,9.873,0,0,1,2.392,7v.205a9.574,9.574,0,0,1-2.4,6.862,8.524,8.524,0,0,1-6.5,2.538A8.624,8.624,0,0,1,129.309,74.647Zm3.179-8.075-.017,1.042a6.869,6.869,0,0,0,.8,3.759,2.674,2.674,0,0,0,2.375,1.2q3.077,0,3.145-4.734v-.581q0-4.973-3.179-4.973Q132.728,62.282,132.488,66.572Zm-24.3,9.356a8.251,8.251,0,0,1-3.691-2.974,7.748,7.748,0,0,1-1.239-4.35h6.016a3.817,3.817,0,0,0,1.034,2.948,4.889,4.889,0,0,0,3.358.949,3.865,3.865,0,0,0,2.35-.641,2.117,2.117,0,0,0,.863-1.8,2.464,2.464,0,0,0-.931-2.05,11.579,11.579,0,0,0-3.272-1.521,31.41,31.41,0,0,1-3.829-1.521q-4.836-2.376-4.837-6.529a5.856,5.856,0,0,1,1.205-3.649,7.8,7.8,0,0,1,3.409-2.461,13.268,13.268,0,0,1,4.956-.88,11.6,11.6,0,0,1,4.811.957l-4.947,3.571a4.1,4.1,0,0,0-2.538.71A2.088,2.088,0,0,0,111,60.223a12.9,12.9,0,0,0,3.605,1.606,22.083,22.083,0,0,1,4.239,1.786q4.032,2.323,4.033,6.408a6.077,6.077,0,0,1-2.461,5.127,10.948,10.948,0,0,1-6.751,1.863A13.389,13.389,0,0,1,108.188,75.929Zm63.7.743V58.181h5.776V76.672Zm-11.374,0V50.42h5.781V76.67Zm-11.37,0V50.42h5.78V76.67Zm23.291-21.245a2.76,2.76,0,0,1,0-4.058,3.76,3.76,0,0,1,4.614,0,2.762,2.762,0,0,1,0,4.058,3.76,3.76,0,0,1-4.614,0Z" transform="translate(-103.258 -50.42)"/></svg>